{"glyphs":{":":{"x_min":0,"x_max":258,"ha":258,"o":"m 101 526 l 226 526 l 208 399 l 83 399 z m 45 127 l 170 127 l 152 0 l 27 0 z"},"$":{"x_min":0,"x_max":456,"ha":456,"o":"m 178 70 q 112 79 74 116 q 35 154 35 212 q 35 225 37 238 q 39 251 39 254 l 142 254 q 138 238 138 227 q 138 172 190 156 l 212 310 q 171 328 145 344 q 119 361 101 389 q 83 417 83 459 q 83 528 131 570 q 179 613 256 617 l 271 723 l 320 723 l 304 615 q 373 605 405 560 q 437 515 437 452 l 334 452 q 334 514 292 528 l 272 390 q 319 370 347 354 q 375 338 394 310 q 414 282 414 239 q 414 156 362 112 q 310 69 227 67 l 211 -49 l 162 -49 z m 244 532 q 220 527 204 511 q 187 495 187 472 q 187 435 227 412 z m 308 218 q 308 240 295 256 q 282 273 258 287 l 239 151 q 268 154 288 172 q 308 190 308 218 z"},"?":{"x_min":0,"x_max":486,"ha":486,"o":"m 186 239 q 191 278 211 307 q 231 336 266 372 q 306 415 326 448 q 345 480 346 527 q 346 556 331 578 q 316 601 279 601 q 241 601 219 576 q 197 551 188 518 q 180 486 180 459 l 67 459 q 68 524 94 578 q 120 633 170 666 q 221 698 290 698 q 370 698 418 657 q 465 616 465 548 q 465 497 452 459 q 438 421 418 395 q 398 369 367 338 q 334 304 318 280 q 301 257 296 224 l 291 191 l 179 191 z m 165 127 l 289 127 l 270 0 l 146 0 z"},"<":{"x_min":0,"x_max":479,"ha":479,"o":"m 29 198 l 45 318 l 479 522 l 464 413 l 132 259 l 420 104 l 405 -5 z"},"'":{"x_min":0,"x_max":182,"ha":182,"o":"m 81 539 l 102 686 l 210 686 l 189 539 l 148 407 l 82 407 z"},"=":{"x_min":0,"x_max":479,"ha":479,"o":"m 58 409 l 463 409 l 449 311 l 44 311 z m 28 196 l 433 196 l 419 99 l 14 99 z"},"a":{"x_min":0,"x_max":456,"ha":456,"o":"m 26 177 q 26 296 54 378 q 83 459 128 498 q 174 538 226 538 q 307 538 336 460 l 355 526 l 439 526 q 377 118 377 107 q 377 79 401 79 l 424 79 l 413 4 q 388 -12 355 -12 q 322 -12 302 7 q 281 26 276 62 q 254 25 225 6 q 196 -12 165 -12 q 100 -12 63 36 q 26 83 26 177 z m 304 343 q 304 394 290 420 q 276 445 245 445 q 204 445 178 398 q 153 351 143 290 q 133 230 133 185 q 133 81 194 81 q 234 81 258 127 q 283 173 294 234 q 304 295 304 343 z"},"L":{"x_min":0,"x_max":486,"ha":486,"o":"m 126 686 l 240 686 l 159 106 l 444 106 l 428 0 l 30 0 z"},"3":{"x_min":0,"x_max":456,"ha":456,"o":"m 24 153 q 24 173 29 209 l 139 209 q 134 173 134 161 q 134 121 152 100 q 171 79 207 79 q 251 79 280 115 q 309 151 309 221 q 309 303 231 303 l 190 303 l 202 394 l 246 394 q 270 394 292 410 q 314 426 328 458 q 341 489 341 533 q 341 570 325 588 q 309 607 281 607 q 206 607 189 485 l 79 485 q 84 552 113 600 q 142 648 186 673 q 231 698 283 698 q 362 698 408 658 q 453 619 453 544 q 453 472 422 428 q 392 383 340 356 l 340 352 q 377 337 398 304 q 420 270 420 220 q 420 150 392 98 q 363 45 314 16 q 265 -12 206 -12 q 118 -12 71 32 q 24 76 24 153 z"},";":{"x_min":0,"x_max":258,"ha":258,"o":"m 105 526 l 230 526 l 212 399 l 87 399 z m 75 0 l 30 0 l 48 127 l 173 127 l 157 11 l 76 -145 l 9 -145 z"},"J":{"x_min":0,"x_max":440,"ha":440,"o":"m 1 127 q 1 143 11 213 l 120 213 q 120 211 116 188 l 112 151 q 112 120 128 104 q 145 88 176 88 q 242 88 253 168 l 326 686 l 440 686 l 366 163 q 354 78 305 33 q 256 -12 176 -12 q 92 -12 46 24 q 1 59 1 127 z"},"V":{"x_min":0,"x_max":547,"ha":547,"o":"m 69 686 l 186 686 l 264 163 l 268 163 l 493 686 l 607 686 l 303 0 l 181 0 z"},"\"":{"x_min":0,"x_max":355,"ha":355,"o":"m 81 539 l 102 686 l 210 686 l 189 539 l 148 407 l 82 407 z m 246 539 l 267 686 l 375 686 l 354 539 l 312 407 l 247 407 z"},"7":{"x_min":0,"x_max":456,"ha":456,"o":"m 358 584 l 78 584 l 93 686 l 494 686 l 483 615 q 380 485 302 340 q 224 195 204 51 q 204 51 201 24 l 198 0 l 76 0 q 97 156 176 310 q 256 463 358 584 z"},"S":{"x_min":0,"x_max":547,"ha":547,"o":"m 32 177 q 32 209 36 233 l 154 233 q 149 206 149 186 q 149 143 176 116 q 203 88 263 88 q 314 88 349 115 q 384 142 384 188 q 384 219 367 240 q 350 262 325 276 q 300 291 256 311 q 202 336 170 356 q 137 376 114 410 q 91 444 91 495 q 91 583 148 640 q 204 698 317 698 q 434 698 482 640 q 530 582 530 484 l 414 484 q 414 541 386 569 q 358 597 310 597 q 275 597 242 580 q 210 564 210 515 q 210 477 239 455 q 268 433 329 408 q 384 384 419 363 q 454 342 478 304 q 503 267 503 210 q 503 146 474 96 q 445 45 389 16 q 333 -12 256 -12 q 197 -12 146 8 q 95 29 64 72 q 32 114 32 177 z"},"}":{"x_min":0,"x_max":304,"ha":304,"o":"m -23 -89 q 10 -89 35 -74 q 60 -60 65 -24 q 72 27 85 91 l 100 175 q 109 229 136 256 q 163 283 216 283 l 217 293 q 171 293 150 314 q 130 336 130 379 q 130 410 145 526 q 154 596 154 613 q 154 665 83 665 l 92 735 q 169 735 214 710 q 258 685 258 618 q 258 609 256 587 q 227 389 227 382 q 227 357 246 346 q 266 334 296 333 l 284 243 q 253 243 228 228 q 204 214 199 183 l 171 -11 q 159 -97 106 -128 q 53 -159 -33 -159 z"},"Z":{"x_min":0,"x_max":501,"ha":501,"o":"m -10 45 l 353 584 l 85 584 l 100 686 l 528 686 l 524 640 l 160 102 l 456 102 l 442 0 l -13 0 z"},"x":{"x_min":0,"x_max":440,"ha":440,"o":"m 168 271 l 57 526 l 174 526 l 237 367 l 240 367 l 346 526 l 464 526 l 282 271 l 400 0 l 282 0 l 213 176 l 210 176 l 91 0 l -26 0 z"},")":{"x_min":0,"x_max":273,"ha":273,"o":"m 146 396 q 146 485 128 574 q 109 662 78 735 l 148 735 q 197 662 222 574 q 248 486 248 391 q 248 343 240 289 q 223 166 166 51 q 110 -64 23 -157 l -47 -157 q 38 -36 92 112 q 146 259 146 396 z"},"&":{"x_min":0,"x_max":577,"ha":577,"o":"m 444 122 l 510 0 l 391 0 l 366 47 q 326 17 282 2 q 239 -13 197 -13 q 117 -13 72 34 q 27 81 27 154 q 27 227 69 294 q 111 362 185 395 q 161 450 161 506 q 161 559 183 603 q 205 647 246 672 q 287 698 342 698 q 408 698 446 661 q 483 624 483 565 q 483 497 439 437 q 395 377 323 346 l 397 209 q 432 269 450 354 l 548 354 q 519 218 444 122 z m 264 511 q 264 464 281 424 q 324 438 351 475 q 378 512 378 554 q 378 578 366 592 q 354 607 333 607 q 299 607 282 580 q 264 553 264 511 z m 326 123 l 226 313 q 184 294 160 252 q 136 210 136 165 q 136 125 154 102 q 173 79 210 79 q 272 79 326 123 z"},"_":{"x_min":0,"x_max":456,"ha":456,"o":"m -37 -66 l 418 -66 l 410 -129 l -44 -129 z"},"v":{"x_min":0,"x_max":440,"ha":440,"o":"m 45 526 l 153 526 l 190 281 q 194 255 198 206 q 203 157 205 134 l 209 134 l 223 172 q 253 253 264 280 l 368 526 l 477 526 l 240 0 l 130 0 z"},"O":{"x_min":0,"x_max":638,"ha":638,"o":"m 45 249 q 45 358 78 460 q 110 563 182 630 q 254 698 366 698 q 485 698 550 632 q 615 566 615 436 q 615 327 582 225 q 550 123 478 56 q 405 -12 293 -12 q 174 -12 110 54 q 45 119 45 249 z m 498 432 q 498 513 465 556 q 432 598 369 598 q 291 598 244 544 q 198 489 180 411 q 161 333 161 253 q 161 172 194 130 q 226 88 290 88 q 368 88 414 142 q 461 197 480 275 q 498 353 498 432 z"},"(":{"x_min":0,"x_max":273,"ha":273,"o":"m 33 186 q 33 234 41 288 q 58 411 114 527 q 171 643 258 735 l 329 735 q 243 613 190 466 q 136 320 136 182 q 136 93 154 4 q 172 -85 204 -157 l 133 -157 q 84 -84 58 4 q 33 91 33 186 z"},"C":{"x_min":0,"x_max":592,"ha":592,"o":"m 47 247 q 47 357 78 460 q 108 563 176 630 q 245 698 353 698 q 462 698 522 634 q 583 571 583 447 l 583 433 l 466 433 l 466 452 q 466 523 437 560 q 408 598 353 598 q 279 598 236 539 q 194 480 178 402 q 163 323 163 252 q 163 173 194 130 q 225 88 285 88 q 351 88 392 134 q 432 179 445 250 l 557 250 q 536 135 466 62 q 397 -12 284 -12 q 170 -12 108 52 q 47 117 47 247 z"},"W":{"x_min":0,"x_max":774,"ha":774,"o":"m 70 686 l 184 686 l 208 248 q 212 176 212 141 l 216 141 q 233 209 245 246 l 386 686 l 525 686 l 543 246 l 546 141 l 550 141 q 568 210 580 246 l 730 686 l 832 686 l 589 0 l 461 0 l 435 446 q 434 473 434 558 l 429 558 q 410 479 400 447 l 253 0 l 125 0 z"},"A":{"x_min":0,"x_max":577,"ha":577,"o":"m 280 686 l 415 686 l 537 0 l 421 0 l 397 141 l 142 141 l 80 0 l -34 0 z m 380 244 l 343 472 q 337 512 334 585 l 330 585 q 307 509 290 472 l 188 244 z"},"f":{"x_min":0,"x_max":258,"ha":258,"o":"m -86 -170 l -75 -92 l -31 -92 q -9 -92 4 -80 q 18 -67 21 -44 l 83 435 l 33 435 l 46 526 l 96 526 l 106 597 q 114 654 146 692 q 179 731 241 731 q 260 731 283 728 q 306 724 320 719 l 308 641 l 262 641 q 218 641 212 596 l 202 526 l 293 526 l 280 435 l 190 435 l 126 -48 q 118 -105 86 -144 q 54 -182 -7 -182 q -26 -182 -49 -178 q -72 -175 -86 -170 z"},"Q":{"x_min":0,"x_max":638,"ha":638,"o":"m 296 -12 q 174 -11 110 54 q 47 120 47 249 q 47 358 80 460 q 112 563 184 630 q 256 698 368 698 q 487 698 552 632 q 617 566 617 436 q 617 349 596 264 q 575 179 528 110 q 482 42 411 11 l 526 -124 l 387 -124 z m 500 432 q 500 513 467 556 q 434 598 371 598 q 293 598 246 544 q 200 489 182 411 q 163 333 163 253 q 163 172 196 130 q 228 88 292 88 q 370 88 416 142 q 463 197 482 275 q 500 353 500 432 z"},"w":{"x_min":0,"x_max":622,"ha":622,"o":"m 42 526 l 144 526 l 166 282 q 169 251 171 207 q 173 163 174 145 l 175 122 l 179 122 q 194 215 216 281 l 298 526 l 410 526 l 424 281 q 427 223 427 122 l 431 122 q 455 224 476 281 l 562 526 l 659 526 l 458 0 l 350 0 l 334 282 q 331 330 331 406 l 326 406 q 316 322 298 268 l 208 0 l 98 0 z"},"-":{"x_min":0,"x_max":273,"ha":273,"o":"m 25 326 l 270 326 l 254 214 l 10 214 z"},"E":{"x_min":0,"x_max":547,"ha":547,"o":"m 126 686 l 555 686 l 541 584 l 225 584 l 200 402 l 472 402 l 458 300 l 186 300 l 158 102 l 480 102 l 465 0 l 30 0 z"},"s":{"x_min":0,"x_max":440,"ha":440,"o":"m 22 133 q 22 145 24 158 q 26 172 26 175 l 136 175 q 132 159 132 147 q 132 111 154 94 q 177 77 211 77 q 238 77 259 94 q 280 110 280 138 q 280 170 259 188 q 238 206 193 226 q 153 244 129 260 q 105 277 88 306 q 70 334 70 379 q 70 453 121 496 q 172 538 253 538 q 338 538 376 491 q 415 444 415 372 l 306 372 q 306 411 291 430 q 276 449 242 449 q 218 449 200 434 q 181 418 181 393 q 181 362 202 346 q 223 329 267 311 q 307 294 332 278 q 357 263 375 234 q 393 205 393 159 q 393 74 340 31 q 286 -12 203 -12 q 121 -12 72 27 q 22 66 22 133 z"},">":{"x_min":0,"x_max":479,"ha":479,"o":"m 15 104 l 348 259 l 59 413 l 74 522 l 450 318 l 434 198 l 1 -5 z"},"l":{"x_min":0,"x_max":212,"ha":212,"o":"m 120 723 l 226 723 l 126 0 l 20 0 z"},"8":{"x_min":0,"x_max":456,"ha":456,"o":"m 23 148 q 23 214 51 270 q 79 326 136 352 q 109 371 96 402 q 82 432 82 471 q 82 532 106 584 q 129 636 174 667 q 220 698 281 698 q 362 698 404 653 q 445 608 445 539 q 445 484 418 432 q 392 381 347 352 q 414 315 414 225 q 414 160 390 106 q 366 52 318 20 q 269 -12 199 -12 q 110 -12 66 32 q 23 75 23 148 z m 338 532 q 338 568 322 588 q 306 607 277 607 q 234 607 211 566 q 188 524 188 472 q 188 435 204 416 q 219 396 248 396 q 286 396 312 432 q 338 469 338 532 z m 305 223 q 305 263 288 284 q 270 305 235 305 q 185 305 159 262 q 133 218 133 161 q 133 121 152 100 q 170 79 204 79 q 249 79 277 118 q 305 156 305 223 z"},"\\":{"x_min":0,"x_max":228,"ha":228,"o":"m 55 735 l 132 735 l 208 -49 l 129 -49 z"},"e":{"x_min":0,"x_max":456,"ha":456,"o":"m 34 174 q 34 326 86 432 q 137 538 263 538 q 426 538 426 356 q 426 294 416 235 l 144 235 q 142 214 142 187 q 142 131 158 104 q 173 77 207 77 q 240 77 264 107 q 287 137 295 181 l 404 181 q 387 95 338 42 q 288 -12 204 -12 q 119 -12 76 34 q 34 80 34 174 z m 316 317 l 317 355 q 317 402 303 426 q 289 449 259 449 q 219 449 194 412 q 169 375 156 317 z"},"b":{"x_min":0,"x_max":486,"ha":486,"o":"m 128 71 l 106 0 l 23 0 l 123 723 l 230 723 l 195 471 q 218 503 250 520 q 281 538 317 538 q 379 538 416 490 q 452 442 452 347 q 452 257 428 174 q 405 92 359 40 q 313 -12 247 -12 q 158 -12 128 71 z m 343 344 q 343 393 327 417 q 311 441 277 441 q 232 441 206 396 q 179 351 168 292 q 158 232 158 183 q 158 134 174 110 q 190 85 225 85 q 271 85 297 130 q 323 175 333 234 q 343 293 343 344 z"},"%":{"x_min":0,"x_max":729,"ha":729,"o":"m 70 460 q 70 585 113 642 q 156 698 224 698 q 285 698 316 670 q 347 641 347 574 q 347 480 313 408 q 279 337 193 337 q 133 337 102 365 q 70 393 70 460 z m 595 686 l 676 686 l 160 0 l 80 0 z m 260 510 q 265 550 265 570 q 265 630 224 630 q 195 630 180 604 q 165 577 157 525 q 151 487 151 465 q 151 405 193 405 q 223 405 238 432 q 252 458 260 510 z m 409 111 q 409 236 452 292 q 495 349 563 349 q 624 349 655 320 q 686 292 686 225 q 686 131 652 60 q 618 -12 532 -12 q 472 -12 440 16 q 409 44 409 111 z m 599 161 q 604 201 604 221 q 604 281 563 281 q 534 281 519 254 q 504 228 496 176 q 490 138 490 116 q 490 56 532 56 q 562 56 576 82 q 591 109 599 161 z"},"m":{"x_min":0,"x_max":713,"ha":713,"o":"m 97 526 l 183 526 l 183 455 q 234 538 316 538 q 362 538 389 514 q 416 491 425 450 q 448 488 480 513 q 513 538 562 538 q 618 538 646 503 q 675 468 675 409 q 675 383 641 142 l 621 0 l 515 0 l 544 206 q 566 365 566 381 q 566 441 516 441 q 480 441 453 407 q 426 373 418 313 l 376 0 l 270 0 l 292 162 q 320 361 320 381 q 320 441 271 441 q 234 441 207 406 q 180 370 172 308 l 130 0 l 23 0 z"},"#":{"x_min":0,"x_max":456,"ha":456,"o":"m 84 190 l 20 190 l 20 271 l 102 271 l 134 417 l 59 417 l 59 498 l 152 498 l 197 697 l 281 697 l 236 498 l 316 498 l 361 697 l 445 697 l 400 498 l 462 498 l 462 417 l 382 417 l 350 271 l 422 271 l 422 190 l 332 190 l 289 0 l 205 0 l 248 190 l 168 190 l 125 0 l 41 0 z m 266 271 l 298 417 l 218 417 l 186 271 z"},",":{"x_min":0,"x_max":228,"ha":228,"o":"m 68 0 l 23 0 l 40 127 l 165 127 l 150 11 l 68 -145 l 2 -145 z"},"n":{"x_min":0,"x_max":486,"ha":486,"o":"m 96 526 l 182 526 l 182 453 q 234 538 324 538 q 385 538 416 504 q 446 469 446 409 q 446 391 422 217 l 392 0 l 287 0 q 298 85 306 146 q 315 206 320 247 q 337 364 337 376 q 337 410 323 426 q 309 441 279 441 q 238 441 209 406 q 180 370 171 308 l 129 0 l 23 0 z"},"h":{"x_min":0,"x_max":486,"ha":486,"o":"m 123 723 l 229 723 l 193 469 q 247 538 323 538 q 385 538 416 504 q 446 469 446 409 q 446 391 422 217 l 392 0 l 286 0 l 300 102 q 337 356 337 376 q 337 410 323 426 q 309 441 278 441 q 238 441 209 406 q 180 370 172 308 l 129 0 l 23 0 z"},"z":{"x_min":0,"x_max":410,"ha":410,"o":"m -4 47 l 257 435 l 62 435 l 75 526 l 416 526 l 412 480 l 150 91 l 367 91 l 355 0 l -7 0 z"},"B":{"x_min":0,"x_max":577,"ha":577,"o":"m 126 686 l 396 686 q 473 686 520 645 q 566 604 566 536 q 566 473 528 426 q 491 378 438 360 l 437 356 q 482 341 509 301 q 536 261 536 205 q 536 144 504 97 q 473 50 422 25 q 372 0 315 0 l 30 0 z m 334 402 q 384 402 415 434 q 446 465 446 508 q 446 546 424 565 q 403 584 364 584 l 225 584 l 200 402 z m 311 102 q 357 102 388 132 q 420 162 420 214 q 420 252 396 276 q 372 300 328 300 l 186 300 l 158 102 z"},"K":{"x_min":0,"x_max":577,"ha":577,"o":"m 126 686 l 241 686 l 192 342 l 489 686 l 624 686 l 380 406 l 534 0 l 408 0 l 295 317 l 170 188 l 144 0 l 30 0 z"},"R":{"x_min":0,"x_max":592,"ha":592,"o":"m 126 686 l 394 686 q 490 686 539 642 q 588 597 588 520 q 588 446 549 391 q 510 336 443 313 l 535 0 l 413 0 l 330 292 l 184 292 l 144 0 l 30 0 z m 348 394 q 401 394 434 424 q 466 454 466 504 q 466 542 444 563 q 422 584 377 584 l 225 584 l 198 394 z"},"T":{"x_min":0,"x_max":501,"ha":501,"o":"m 239 584 l 64 584 l 79 686 l 542 686 l 527 584 l 352 584 l 270 0 l 157 0 z"},"P":{"x_min":0,"x_max":547,"ha":547,"o":"m 126 686 l 363 686 q 456 686 504 638 q 553 590 553 510 q 553 438 524 384 q 494 330 442 301 q 389 272 323 272 l 182 272 l 143 0 l 30 0 z m 321 374 q 371 374 403 406 q 435 437 435 491 q 435 534 412 559 q 388 584 346 584 l 225 584 l 196 374 z"},"|":{"x_min":0,"x_max":224,"ha":224,"o":"m 69 723 l 155 723 l 155 -173 l 69 -173 z"},"t":{"x_min":0,"x_max":258,"ha":258,"o":"m 39 89 q 39 113 87 435 l 36 435 l 49 526 l 99 526 l 138 673 l 227 673 l 205 526 l 279 526 l 267 435 l 193 435 q 148 124 148 114 q 148 79 185 79 l 216 79 l 206 1 q 192 -4 172 -8 q 153 -11 137 -11 q 85 -11 62 16 q 39 44 39 89 z"},"M":{"x_min":0,"x_max":683,"ha":683,"o":"m 118 686 l 280 686 l 320 283 q 325 241 327 136 l 331 136 q 359 247 373 286 l 526 686 l 686 686 l 590 0 l 483 0 l 547 458 q 550 484 565 560 l 561 560 l 547 522 q 534 482 525 461 l 351 0 l 252 0 l 207 460 l 201 529 l 199 560 l 195 560 q 188 480 185 458 l 120 0 l 22 0 z"},"g":{"x_min":0,"x_max":486,"ha":486,"o":"m 7 -24 l 115 -24 q 115 -91 184 -91 q 227 -91 253 -62 q 279 -34 289 25 l 298 83 q 274 49 244 30 q 213 12 178 12 q 112 12 74 59 q 36 106 36 188 q 36 276 59 356 q 82 437 128 488 q 174 538 240 538 q 329 538 359 455 l 380 526 l 464 526 l 397 49 q 380 -72 326 -127 q 272 -182 178 -182 q 95 -182 51 -136 q 7 -91 7 -24 z m 330 343 q 330 441 262 441 q 196 441 170 359 q 145 277 145 191 q 145 148 163 126 q 181 105 214 105 q 257 105 283 146 q 309 188 320 244 q 330 299 330 343 z"},"j":{"x_min":0,"x_max":212,"ha":212,"o":"m -93 -170 l -82 -92 l -39 -92 q 6 -92 14 -44 l 93 526 l 199 526 l 119 -48 q 110 -106 78 -144 q 47 -182 -14 -182 q -34 -182 -56 -178 q -78 -175 -93 -170 z m 116 723 l 225 723 l 209 615 l 101 615 z"},"i":{"x_min":0,"x_max":228,"ha":228,"o":"m 101 526 l 207 526 l 134 0 l 28 0 z m 126 723 l 235 723 l 219 615 l 111 615 z"},"y":{"x_min":0,"x_max":440,"ha":440,"o":"m -12 -173 l -2 -93 l 43 -93 q 73 -93 100 -71 q 126 -49 144 0 l 48 526 l 157 526 l 201 255 q 205 234 213 161 q 215 136 216 130 l 220 130 q 225 145 227 153 q 251 225 262 254 l 369 526 l 477 526 l 265 27 q 223 -71 174 -126 q 124 -182 57 -182 q 30 -182 12 -179 q -7 -176 -12 -173 z"},"@":{"x_min":0,"x_max":811,"ha":811,"o":"m 41 194 q 41 357 92 470 q 143 583 238 640 q 333 698 464 698 q 594 698 665 658 q 736 618 762 546 q 789 475 789 369 q 789 283 766 204 q 742 124 692 73 q 642 22 567 22 q 521 22 496 40 q 471 58 460 82 q 441 53 414 38 q 386 22 359 22 q 300 22 266 65 q 233 108 233 194 q 233 302 259 376 q 285 449 326 485 q 368 521 415 521 q 487 521 514 450 l 532 510 l 607 510 q 598 454 576 307 q 554 160 554 145 q 554 101 595 101 q 639 101 671 153 q 696 191 710 250 q 724 310 724 368 q 724 466 699 523 q 674 580 621 608 q 568 636 481 636 q 308 636 206 532 q 105 427 105 196 q 105 -92 385 -92 q 429 -92 464 -86 q 498 -80 517 -72 l 509 -136 q 495 -141 461 -148 q 427 -154 394 -154 q 41 -154 41 194 z m 485 344 q 485 391 472 414 q 460 437 432 437 q 394 437 372 394 q 349 352 340 297 q 330 242 330 201 q 330 106 385 106 q 422 106 444 148 q 466 189 476 244 q 485 300 485 344 z"},".":{"x_min":0,"x_max":228,"ha":228,"o":"m 41 127 l 166 127 l 148 0 l 23 0 z"},"p":{"x_min":0,"x_max":486,"ha":486,"o":"m 97 526 l 183 526 l 183 451 q 232 538 313 538 q 379 538 416 490 q 453 442 453 349 q 453 230 424 148 q 395 67 348 28 q 301 -12 248 -12 q 171 -12 138 57 l 105 -175 l 0 -175 z m 344 344 q 344 393 328 417 q 313 441 278 441 q 233 441 206 396 q 180 351 170 292 q 159 232 159 183 q 159 134 176 110 q 192 85 227 85 q 292 85 318 170 q 344 255 344 344 z"},"X":{"x_min":0,"x_max":547,"ha":547,"o":"m 227 359 l 84 686 l 211 686 l 304 465 l 307 465 l 459 686 l 587 686 l 352 359 l 510 0 l 382 0 l 275 252 l 272 252 l 95 0 l -30 0 z"},"*":{"x_min":0,"x_max":319,"ha":319,"o":"m 169 492 l 81 434 l 53 499 l 148 540 l 65 582 l 111 645 l 184 588 l 187 686 l 262 686 l 239 589 l 327 645 l 356 582 l 260 540 l 344 499 l 298 434 l 225 492 l 221 394 l 146 394 z"},"Y":{"x_min":0,"x_max":547,"ha":547,"o":"m 222 268 l 68 686 l 186 686 l 294 379 l 298 379 l 489 686 l 606 686 l 336 268 l 297 0 l 184 0 z"},"c":{"x_min":0,"x_max":440,"ha":440,"o":"m 34 174 q 34 325 84 432 q 134 538 259 538 q 340 538 379 490 q 418 443 418 345 l 418 329 l 308 329 l 308 345 q 308 397 296 422 q 283 447 253 447 q 211 447 186 397 q 162 347 153 286 q 144 226 144 189 q 144 134 158 106 q 172 79 204 79 q 238 79 262 112 q 285 145 293 194 l 400 194 q 382 102 334 45 q 286 -12 199 -12 q 34 -12 34 174 z"},"!":{"x_min":0,"x_max":258,"ha":258,"o":"m 125 686 l 264 686 l 161 188 l 86 188 z m 54 127 l 179 127 l 160 0 l 35 0 z"},"/":{"x_min":0,"x_max":228,"ha":228,"o":"m 213 735 l 293 735 l 36 -49 l -44 -49 z"},"[":{"x_min":0,"x_max":258,"ha":258,"o":"m 116 735 l 301 735 l 289 650 l 206 650 l 105 -76 l 188 -76 l 176 -161 l -8 -161 z"},"6":{"x_min":0,"x_max":456,"ha":456,"o":"m 40 200 q 40 253 49 323 q 68 463 101 546 q 134 628 180 663 q 225 698 287 698 q 366 698 404 653 q 443 608 443 531 q 443 500 439 475 l 330 475 q 334 500 334 525 q 334 566 322 586 q 309 607 281 607 q 232 607 208 550 q 184 494 166 373 q 188 400 219 416 q 250 431 284 431 q 354 431 389 386 q 424 340 424 263 q 424 182 396 120 q 367 57 318 22 q 270 -12 213 -12 q 128 -12 84 37 q 40 86 40 200 z m 313 250 q 313 293 297 318 q 281 342 249 342 q 203 342 175 293 q 147 244 147 172 q 147 130 163 104 q 179 79 211 79 q 247 79 270 108 q 293 137 303 176 q 313 216 313 250 z"},"r":{"x_min":0,"x_max":303,"ha":303,"o":"m 94 526 l 180 526 l 180 445 q 200 486 224 512 q 249 538 287 538 q 314 538 331 530 l 317 425 l 283 425 q 240 425 208 394 q 177 363 168 297 l 126 0 l 21 0 z"},"2":{"x_min":0,"x_max":456,"ha":456,"o":"m 4 20 q 19 112 88 194 q 118 231 189 298 q 241 348 272 382 q 302 415 322 454 q 343 494 343 537 q 343 565 328 584 q 313 604 280 604 q 240 604 216 572 q 192 540 186 491 l 181 450 l 73 450 q 73 518 98 574 q 123 631 172 664 q 221 698 289 698 q 365 698 410 662 q 455 626 456 552 q 456 485 426 425 q 396 365 355 318 q 314 271 250 211 q 198 161 178 138 q 160 119 151 102 l 398 102 l 383 0 l 1 0 z"},"{":{"x_min":0,"x_max":304,"ha":304,"o":"m 54 -42 q 54 -28 57 -11 q 65 48 70 82 q 75 117 78 135 q 86 191 86 194 q 86 219 66 230 q 46 242 16 243 l 28 333 q 59 333 84 348 q 109 362 114 393 l 142 587 q 154 673 207 704 q 260 735 345 735 l 336 665 q 303 665 278 650 q 252 636 247 600 q 240 549 227 485 l 212 401 q 203 347 176 320 q 149 293 96 293 l 95 283 q 142 283 162 262 q 182 240 182 197 q 182 172 176 119 q 170 66 168 50 q 159 -20 159 -37 q 159 -89 229 -89 l 220 -159 q 143 -159 98 -134 q 54 -109 54 -42 z"},"9":{"x_min":0,"x_max":456,"ha":456,"o":"m 41 155 q 41 186 45 211 l 154 211 q 150 186 150 161 q 150 120 162 100 q 175 79 203 79 q 252 79 276 136 q 300 192 318 313 q 296 286 265 270 q 234 255 200 255 q 130 255 95 300 q 60 346 60 423 q 60 504 88 566 q 117 629 166 664 q 214 698 271 698 q 356 698 400 649 q 444 600 444 486 q 444 434 435 363 q 416 223 383 140 q 350 58 304 23 q 259 -12 197 -12 q 118 -12 80 33 q 41 78 41 155 z m 337 514 q 337 556 321 582 q 305 607 273 607 q 237 607 214 578 q 191 549 181 510 q 171 470 171 436 q 171 393 187 368 q 203 344 235 344 q 281 344 309 393 q 337 442 337 514 z"}," ":{"x_min":0,"x_max":228,"ha":228,"o":""},"I":{"x_min":0,"x_max":228,"ha":228,"o":"m 120 686 l 233 686 l 137 0 l 23 0 z"},"H":{"x_min":0,"x_max":592,"ha":592,"o":"m 125 686 l 238 686 l 198 402 l 434 402 l 473 686 l 587 686 l 490 0 l 377 0 l 419 300 l 184 300 l 142 0 l 28 0 z"},"4":{"x_min":0,"x_max":456,"ha":456,"o":"m 257 160 l 6 160 l 18 248 q 82 340 142 458 q 203 576 252 698 l 361 698 q 332 615 284 524 q 235 432 186 358 q 138 283 111 251 l 269 251 l 291 405 q 314 443 336 489 q 358 535 372 575 l 421 575 l 375 251 l 445 251 l 432 160 l 363 160 l 340 0 l 234 0 z"},"~":{"x_min":0,"x_max":479,"ha":479,"o":"m 36 312 q 59 343 94 364 q 128 385 168 385 q 189 385 208 378 q 226 370 250 355 q 279 339 297 332 q 315 324 337 324 q 368 324 397 340 q 426 356 434 364 q 442 371 468 397 l 452 287 q 429 256 395 235 q 361 214 321 214 q 300 214 282 222 q 264 229 238 244 q 212 260 193 268 q 174 275 152 275 q 121 275 92 259 q 63 243 55 236 q 47 228 21 202 z"},"D":{"x_min":0,"x_max":592,"ha":592,"o":"m 126 686 l 335 686 q 448 686 510 620 q 572 554 572 427 q 572 327 540 228 q 508 130 438 65 q 369 0 264 0 l 30 0 z m 254 102 q 328 102 373 152 q 418 202 437 275 q 456 348 456 421 q 456 502 420 543 q 385 584 319 584 l 225 584 l 158 102 z"},"^":{"x_min":0,"x_max":447,"ha":447,"o":"m 210 686 l 317 686 l 412 294 l 309 294 l 248 579 l 112 294 l 6 294 z"},"0":{"x_min":0,"x_max":456,"ha":456,"o":"m 35 197 q 35 258 47 343 q 65 479 96 557 q 128 635 172 666 q 217 698 279 698 q 361 698 403 650 q 445 602 445 486 q 445 427 433 343 q 415 207 382 129 q 350 51 306 20 q 261 -12 200 -12 q 119 -12 77 36 q 35 83 35 197 z m 318 308 q 330 394 334 434 q 338 473 338 497 q 338 553 324 580 q 310 607 276 607 q 228 607 202 552 q 177 496 161 378 q 157 352 156 340 q 148 286 144 252 q 140 218 140 185 q 140 132 154 106 q 169 79 203 79 q 251 79 276 134 q 301 189 318 308 z"},"F":{"x_min":0,"x_max":501,"ha":501,"o":"m 127 686 l 524 686 l 510 584 l 225 584 l 199 394 l 445 394 l 430 292 l 185 292 l 144 0 l 30 0 z"},"`":{"x_min":0,"x_max":273,"ha":273,"o":"m 78 720 l 80 723 l 190 723 l 257 591 l 168 591 z"},"k":{"x_min":0,"x_max":440,"ha":440,"o":"m 122 723 l 228 723 l 171 316 l 348 526 l 470 526 l 286 310 l 404 0 l 291 0 l 210 224 l 151 169 l 128 0 l 22 0 z"},"u":{"x_min":0,"x_max":486,"ha":486,"o":"m 39 117 q 39 134 58 270 l 93 526 l 199 526 q 188 446 180 391 q 173 336 168 301 q 148 163 148 150 q 148 116 162 100 q 177 85 207 85 q 247 85 276 120 q 306 156 314 218 l 357 526 l 463 526 l 390 0 l 303 0 l 303 71 q 249 -12 162 -12 q 100 -12 70 22 q 39 57 39 117 z"},"]":{"x_min":0,"x_max":258,"ha":258,"o":"m -20 -76 l 62 -76 l 164 650 l 81 650 l 93 735 l 278 735 l 153 -161 l -31 -161 z"},"U":{"x_min":0,"x_max":592,"ha":592,"o":"m 58 175 q 58 220 127 686 l 241 686 q 173 219 173 194 q 173 142 200 115 q 227 88 277 88 q 331 88 366 123 q 400 158 410 224 l 475 686 l 588 686 l 523 223 q 507 108 443 48 q 379 -12 276 -12 q 172 -12 115 36 q 58 84 58 175 z"},"o":{"x_min":0,"x_max":486,"ha":486,"o":"m 35 178 q 35 322 88 430 q 141 538 271 538 q 450 538 450 345 q 450 202 397 95 q 344 -12 214 -12 q 35 -12 35 178 z m 340 345 q 340 447 269 447 q 218 447 190 396 q 162 346 154 286 q 145 227 145 184 q 145 131 162 105 q 179 79 217 79 q 290 79 315 170 q 340 262 340 345 z"},"N":{"x_min":0,"x_max":592,"ha":592,"o":"m 126 686 l 224 686 l 394 290 q 403 271 420 216 l 423 219 q 428 273 431 287 l 487 686 l 588 686 l 492 0 l 394 0 l 223 398 q 215 416 197 472 l 194 469 q 190 421 187 401 l 130 0 l 30 0 z"},"+":{"x_min":0,"x_max":479,"ha":479,"o":"m 183 206 l 29 206 l 43 304 l 197 304 l 225 511 l 322 511 l 293 304 l 448 304 l 434 206 l 279 206 l 251 0 l 154 0 z"},"G":{"x_min":0,"x_max":638,"ha":638,"o":"m 320 368 l 597 368 l 546 0 l 472 0 l 461 76 q 388 -12 274 -12 q 165 -12 106 52 q 47 117 47 247 q 47 355 78 458 q 110 561 182 630 q 254 698 366 698 q 482 698 544 636 q 607 573 607 449 l 491 449 l 491 457 q 491 526 460 562 q 428 598 369 598 q 290 598 244 540 q 197 482 180 404 q 162 325 162 252 q 162 172 195 130 q 228 88 296 88 q 368 88 410 134 q 453 179 466 256 l 468 269 l 305 269 z"},"q":{"x_min":0,"x_max":486,"ha":486,"o":"m 291 55 q 244 -12 169 -12 q 107 -12 71 36 q 35 83 35 179 q 35 269 58 352 q 81 434 127 486 q 173 538 239 538 q 328 538 358 455 l 380 526 l 464 526 l 367 -172 l 261 -172 z m 329 343 q 329 441 261 441 q 196 441 170 356 q 144 271 144 182 q 144 133 160 109 q 176 85 210 85 q 255 85 282 130 q 308 175 318 234 q 329 294 329 343 z"},"d":{"x_min":0,"x_max":486,"ha":486,"o":"m 35 177 q 35 296 64 378 q 93 459 140 498 q 187 538 240 538 q 318 538 349 469 l 386 723 l 492 723 l 391 0 l 305 0 l 305 74 q 254 -12 175 -12 q 109 -12 72 36 q 35 84 35 177 z m 329 343 q 329 441 263 441 q 217 441 190 396 q 164 351 154 292 q 144 233 144 182 q 144 133 160 109 q 175 85 210 85 q 255 85 282 130 q 308 175 318 234 q 329 294 329 343 z"},"1":{"x_min":0,"x_max":456,"ha":456,"o":"m 12 91 l 168 91 l 231 540 l 74 540 l 83 610 q 128 615 193 636 q 258 658 308 686 l 358 686 l 274 91 l 418 91 l 405 0 l 0 0 z"},"5":{"x_min":0,"x_max":456,"ha":456,"o":"m 25 167 q 25 189 28 213 l 139 213 q 136 194 136 177 q 136 131 155 104 q 174 78 207 78 q 234 78 260 99 q 285 120 301 162 q 317 203 317 261 q 317 306 300 331 q 282 356 253 356 q 224 356 201 338 q 178 321 161 291 l 60 306 l 137 686 l 460 686 l 445 584 l 215 584 l 179 406 q 230 446 289 446 q 352 446 390 404 q 428 361 428 279 q 428 189 398 123 q 369 57 318 22 q 267 -12 204 -12 q 120 -12 72 35 q 25 82 25 167 z"}}}
